PathFileType	4	(X/Y/Z)	Patient4_TMGait_0pt6_01_right_05.trc.trc
DataRate	CameraRate	NumFrames	NumMarkers	Units	OrigDataRate	OrigDataStartFrame	OrigNumFrames
76.086956521739	76.086956521739	6	33	mm	76.086956521739	36	       141
Frame#	Time	Sacral			L.Shoulder			Chest			R.Shoulder			Neck			R.ASIS			L.ASIS			R.Thigh.Superior			R.Thigh.Lateral			R.Thigh.Inferior			R.Patella			L.Thigh.Superior			L.Thigh.Lateral			L.Thigh.Inferior			L.Patella			L.Shank.Superior			L.Shank.Lateral			L.Shank.Inferior			R.Shank.Superior			R.Shank.Lateral			R.Shank.Inferior			R.Heel			R.Midfoot.Superior			R.Midfoot.Lateral			R.Toe			L.Heel			L.Midfoot.Lateral			L.Midfoot.Superior			L.Toe			L.Elbow			L.Wrist			R.Elbow			R.Wrist			
		X1	Y1	Z1	X2	Y2	Z2	X3	Y3	Z3	X4	Y4	Z4	X5	Y5	Z5	X6	Y6	Z6	X7	Y7	Z7	X8	Y8	Z8	X9	Y9	Z9	X10	Y10	Z10	X11	Y11	Z11	X12	Y12	Z12	X13	Y13	Z13	X14	Y14	Z14	X15	Y15	Z15	X16	Y16	Z16	X17	Y17	Z17	X18	Y18	Z18	X19	Y19	Z19	X20	Y20	Z20	X21	Y21	Z21	X22	Y22	Z22	X23	Y23	Z23	X24	Y24	Z24	X25	Y25	Z25	X26	Y26	Z26	X27	Y27	Z27	X28	Y28	Z28	X29	Y29	Z29	X30	Y30	Z30	X31	Y31	Z31	X32	Y32	Z32	X33	Y33	Z33	

36	5.850000000000	643.043769751881	992.047076561349	485.145050940044	800.731270341795	1432.650024411528	318.220738783557	899.990931880290	1366.426292725564	482.794004295495	803.023027612550	1429.769027066667	652.824669029669	775.545003041778	1489.341309810594	471.825598089563	866.476644047531	941.259407592701	613.242912657537	863.389909562635	955.590685496057	338.751145143972	931.336120585902	750.033121194118	584.664310412725	861.081141509634	632.534810461893	638.397075488222	948.569301351117	590.952391464297	562.135043956103	958.959110706997	501.415997469969	567.350354471726	899.400645976660	733.715687452770	362.823384709377	809.142714613951	621.234090497196	295.233422047610	890.624335080009	534.178496331702	353.976259938860	879.515700033931	448.493422974440	350.960583699881	809.233916521424	391.588358727800	346.161545761954	668.336155010338	349.973502314321	297.193480545392	652.286328802012	224.441773829023	358.331977576914	937.533858212510	409.991168625392	570.920875548446	871.449440069028	299.003482833486	625.722571404413	925.725353720141	209.979230465928	563.139281671618	804.315688475618	40.812789130958	523.053323322352	974.628919870938	99.557762715748	560.838631048512	887.336276376587	35.758225388025	598.633106348227	1094.699128731946	49.765558992078	588.085592915016	459.819860044420	154.531235614067	398.118531515684	519.547790373372	115.491602445525	316.470925415163	623.425529256520	130.596771753350	337.405419896547	708.207273914313	34.512715632724	306.214541994177	833.950159664780	1087.568887786658	186.754576674862	1071.346185082313	1061.263054768188	267.785688528585	746.013467974652	1081.212426594091	756.737729169033	818.524814299466	830.033481138582	758.267004996681	
37	5.863142857143	642.995840677941	993.965132014244	488.660486972877	798.602239574025	1435.273339928515	322.334347871680	899.912227739890	1368.089262818746	485.320026125020	805.185586474607	1430.634687561930	656.841819700622	775.184339363242	1491.117941134806	476.372580528176	867.238225364774	942.979598327711	614.689898325065	862.248673780029	957.452987457259	340.208306358524	928.657939762691	749.445847877510	587.753542255093	855.876312088161	633.104051773217	640.579662551480	943.102564960584	590.331846954314	564.667938819943	951.921031980335	501.081748431674	569.582970793234	903.484450349703	737.737511965601	363.877636006770	816.894249006172	623.100555522234	295.847686602753	901.823144099257	537.883933643169	353.261372324141	892.109571009066	451.067299042628	349.587148999601	820.343115722050	394.136013933274	345.684566290407	677.334105880687	356.588257795643	299.118354362941	659.224899502487	231.088640902787	359.783245380880	930.185798217649	409.988924910706	572.938562224205	863.319082864410	299.107994647953	626.984872035249	917.853456044565	210.101281785756	564.480713707727	796.547058940457	40.830684276363	523.353482564239	966.935340270917	99.700809159782	561.456506637858	879.573780753437	35.680375611772	598.900067286232	1086.895549170770	49.952917650339	588.359844522915	465.254254332021	167.170552252641	402.566979123117	522.166370059730	126.663889278969	319.481010450462	627.330281791539	137.425711846790	338.689579251795	707.542875886200	36.258386127659	304.885188481039	828.264132503531	1089.815323565504	190.772345714328	1065.361446452559	1051.824674496305	270.587919959620	756.651487718891	1079.977297960727	760.038112448265	839.490579354931	832.012169184503	757.399725408748	
38	5.876285714286	642.747329564938	995.856024681013	491.990364346730	796.385762098048	1437.752858676659	326.307469250587	899.752101011057	1369.623260337420	487.670332681512	807.326864115337	1431.405128939577	660.686658162552	774.797813847933	1492.816652086006	480.738205339114	867.747592637932	944.558802055869	616.032313229174	860.963373372291	959.262763533691	341.593102502684	925.696388334159	748.861069962497	590.581299874429	850.508585962387	633.638412797176	642.605766340638	937.389196016806	589.715901192143	566.975557799700	944.656315323784	500.786290633123	571.623750107215	907.161035768080	741.995864851120	364.688372162337	824.060768415600	625.460657555683	296.119965038577	912.281914434235	542.158121209811	352.103833089501	904.115322312508	454.342804406045	347.818337182212	831.319124272930	397.175090901713	344.859062352808	686.517803045696	362.760824236842	300.966001251838	667.225188581063	237.217479956923	361.202915994659	922.677009558536	410.013565956980	574.768800477351	855.107698974364	299.236104312398	628.117362487476	909.922987800118	210.246859112336	565.709657610720	788.731811387081	40.886427897803	523.630459264420	959.247308732552	99.783551951106	562.035781798008	871.763565530472	35.610531523332	599.125927747319	1079.062988769309	50.028238964692	588.600787202441	472.577361495073	177.639781008400	407.437694832006	526.778878561710	136.401721431196	322.771432925264	632.932392508707	143.846216095304	340.024568150398	709.440835277601	38.607104855245	303.290372601796	822.045472294305	1091.801797104678	194.808971863621	1058.480233177378	1041.956179962657	272.783266373833	767.394533871321	1078.979120336373	763.328679604733	860.743969069420	834.826785840690	756.587558325203	
39	5.889428571429	642.311969995983	997.665769877604	495.130813492241	794.146316696009	1440.053707090008	330.132016084056	899.517327834935	1371.008873582026	489.876372733573	809.394055581555	1432.075930506308	664.349589681239	774.399631204019	1494.411059537586	484.906199939427	868.023255571679	945.960989124209	617.306063420087	859.558281706582	961.012040904698	342.934097119744	922.557930093354	748.321194972693	593.027260152904	845.176966630866	634.156047022454	644.443802130529	931.583846122814	589.127931776578	568.988309049392	937.345830866444	500.529764805748	573.424082931592	910.385469204109	746.415502514548	365.266619548279	830.541728436192	628.245336603161	296.090932820172	921.878457808811	546.903612830375	350.542594305202	915.405756543126	458.241651259413	345.670609881440	842.060376498632	400.604596169406	343.698981788410	695.817158527856	368.216854753988	302.640908464967	676.317106148110	242.518573085488	362.485732035780	915.159485521286	410.053639273587	576.372009417437	846.945960013296	299.395808142762	629.104792317415	902.007704412708	210.399836644741	566.793870624569	780.864277609053	40.976720437737	523.883022418771	951.549125055829	99.818523603246	562.552187965342	863.902035106169	35.553724214409	599.313096564142	1071.198362299505	49.995337962770	588.805835490163	481.771481451191	185.438022620128	412.446742311157	533.512530812065	144.142069795137	326.155394693847	640.374322781565	149.446866866786	341.304824759225	714.221176383396	41.352995420208	301.531833404723	815.305048167062	1093.511628484856	198.853945825588	1050.645129548087	1031.650616726293	274.318417245773	778.151219193685	1078.203856050718	766.542853703456	882.127899196740	838.494325984612	755.816709206234	
40	5.902571428571	641.707601424623	999.352288460550	498.087735356776	791.938905116551	1442.152761154364	333.804332032870	899.213633670983	1372.237140229117	491.971574843377	811.338537119576	1432.650560616442	667.828109322078	774.001040986532	1495.878191558140	488.873415285764	868.090623471694	947.161527528714	618.536112072360	858.054332290918	962.703453795282	344.249525152270	919.332442637599	747.850671587776	595.017180442120	840.021709447805	634.663627309330	646.074222594241	925.806787813163	588.578776544367	570.672736220199	930.130247087206	500.306327116366	574.961700697284	913.141708589420	750.913464702182	365.631971593027	836.287942207143	631.355733779649	295.816735309679	930.545390827339	551.995137463709	348.648513130703	925.895041926885	462.660643096549	343.207365481987	852.499312671386	404.303827265343	342.253785648961	705.201516589984	372.706930133950	304.051079340644	686.518583884774	246.732000595950	363.536223932776	907.749434416774	410.096719212531	577.730678294209	838.928134033644	299.588127919441	629.940078416808	894.163501951975	210.546421843043	567.715204334663	772.949751521338	41.093821486940	524.108184055710	943.831579042511	99.819649227455	562.989816002307	855.996548870932	35.513986045970	599.464296723369	1063.305810747420	49.873634543638	588.975568358034	492.780814661599	190.232362031786	417.277432738432	542.445956507722	149.451990270466	329.420102750055	649.757489169095	153.864101850194	342.429510585870	722.096431744348	44.211201830738	299.726178542642	808.072596906836	1094.953784283372	202.893902741065	1041.802591863366	1020.884916621566	275.162478061967	788.828455486254	1077.640617198384	769.624526284071	903.498517888521	843.040290585754	755.061088690343	
41	5.915714285714	640.954105467330	1000.886114160697	500.873448727897	789.804576488635	1444.035486758800	337.323493188404	898.845884964011	1373.304884593788	493.986204250205	813.121117895404	1433.133267290232	671.126086260156	773.611148019098	1497.196492663623	492.648966577833	867.978361495399	948.146015926163	619.733637813922	856.467019370484	964.341537485257	345.545501055490	916.089475362291	747.455395200681	596.523294082282	835.126775660457	635.156063943901	647.491368040682	920.144023706502	588.068017668001	572.027765481202	923.109260720757	500.104518443613	576.237023186014	915.437151273589	755.402679739126	365.813662677876	841.294490552969	634.672421513777	295.363856660758	938.257765739679	557.287820777893	346.524957888840	935.529269991216	467.477251879977	340.537204454305	862.590009174413	408.144175630019	340.604363516806	714.665710509167	376.030274017858	305.122727362550	697.824162169614	249.670705439450	364.276990894601	900.527240178173	410.128923727695	578.845313788819	831.116120409588	299.806778439549	630.624822214107	886.428339806815	210.674046009659	568.466848040352	765.000267486066	41.227207785372	524.301585862899	936.091486993207	99.798131750559	563.340184604032	848.060635555972	35.494014884277	599.582126885896	1055.394061729632	49.688910137104	589.112106178247	505.521836716376	191.867179530447	421.618903278921	553.603078587175	152.063297711658	332.348498153377	661.127422023960	156.823607896243	343.305963480904	733.152535393328	46.876773495795	297.972498892588	800.400984312742	1096.155145428121	206.910844939597	1031.904392483203	1009.637619423560	275.309888939830	799.333160969035	1077.275916491769	772.532293708619	924.726737398242	848.496273932710	754.283199707322	
